<?xml version="1.0" encoding="UTF-8" standalone="no"?>
<!-- Created with Keyshape -->
<svg xmlns="http://www.w3.org/2000/svg" shape-rendering="geometricPrecision" text-rendering="geometricPrecision" viewBox="0 0 640 480" style="white-space: pre;">
    <path d="M0,163L612,163L612,-496C612,-496,617.5,-651,457,-651C296.5,-651,0,-651,0,-651L-105,-421" stroke="none" fill="#53be9a" stroke-width="40" stroke-dasharray="20" transform="translate(-292.023,574.791)"/>
    <path d="M0,163L612,163L612,-496C612,-496,617.5,-651,457,-651C296.5,-651,0,-651,0,-651L-105,-421" stroke="none" fill="#53be9a" stroke-width="40" stroke-dasharray="20" stroke-dashoffset="20" transform="translate(932.022,574.791) scale(-1,1)"/>
    <path d="M0,163L612,163L612,-496C612,-496,617.5,-651,457,-651C296.5,-651,0,-651,0,-651L-105,-421" stroke="#93c55c" fill="none" stroke-width="40" stroke-dasharray="20" stroke-dashoffset="10" transform="translate(-292.023,563.187)"/>
    <path d="M0,163L612,163L612,-496C612,-496,617.5,-651,457,-651C296.5,-651,0,-651,0,-651L-105,-421" stroke="#399807" fill="none" stroke-width="40" stroke-dasharray="20" stroke-dashoffset="20" transform="translate(932.022,574.791) scale(-1,1)"/>
    <text fill="#000000" font-size="150" font-family="Arial" font-weight="700" letter-spacing="0" word-spacing="0" text-anchor="middle" stroke="none" transform="translate(182.54,284)" style="line-height: 16px;">zip</text>
    <g transform="translate(320.022,-62.209) translate(-104,-118.783)">
        <path d="M0,0L-64,-90L0,-150L45.9775,-121.756L86,-150L144,-90L86,0Z" fill="#758887" stroke-width="40" stroke="none" transform="translate(64,237.566)"/>
        <path fill="#4e5b5a" stroke="none" stroke-width="40" d="M52,0L0,0L0,209.783L52,209.783ZM41,15.5658L12,15.5658L12,87.5658L41,87.5658Z" fill-rule="evenodd" transform="translate(108,93.0658) translate(-26,-93.0658)"/>
    </g>
    <text fill="#000000" font-size="150" font-family="Arial" font-weight="700" letter-spacing="0" word-spacing="0" text-anchor="middle" stroke="none" transform="translate(441.647,284)" style="line-height: 16px;">up</text>
</svg>
