<?xml version="1.0" encoding="UTF-8" standalone="no"?>
<!-- Created with Keyshape -->
<svg xmlns="http://www.w3.org/2000/svg" shape-rendering="geometricPrecision" text-rendering="geometricPrecision" viewBox="0 0 640 480" style="white-space: pre;">
    <style>
@keyframes a0_d { 0% { d: path('M0,163L612,163L612,-24.6806C612,-24.6806,617.5,-106.396,457,-106.396C296.5,-106.396,0,-106.396,0,-106.396L-105,14.8589'); } 100% { d: path('M0,163L612,163L612,-496C612,-496,617.5,-651,457,-651C296.5,-651,0,-651,0,-651L-105,-421'); } }
@keyframes a1_d { 0% { d: path('M0,163L612,163L612,-32.7652C612,-32.7652,617.5,-118,457,-118C296.5,-118,0,-118,0,-118L-105,8.4775'); } 100% { d: path('M0,163L612,163L612,-496C612,-496,617.5,-651,457,-651C296.5,-651,0,-651,0,-651L-105,-421'); } }
@keyframes a2_d { 0% { d: path('M0,163L612,163L612,-16.5961C612,-16.5961,617.5,-94.791,457,-94.791C296.5,-94.791,0,-94.791,0,-94.791L-105,21.2402'); } 100% { d: path('M0,163L612,163L612,-496C612,-496,617.5,-651,457,-651C296.5,-651,0,-651,0,-651L-105,-421'); } }
@keyframes a3_d { 0% { d: path('M0,163L612,163L612,-32.7652C612,-32.7652,617.5,-118,457,-118C296.5,-118,0,-118,0,-118L-105,8.4775'); } 100% { d: path('M0,163L612,163L612,-496C612,-496,617.5,-651,457,-651C296.5,-651,0,-651,0,-651L-105,-421'); } }
@keyframes a4_t { 0% { transform: translate(-142.46px,603.093016px) rotate(-90deg); } 40% { transform: translate(197.804749px,381.004137px) rotate(-90deg); } 45% { transform: translate(199.712852px,372.269748px) rotate(-72deg); } 50% { transform: translate(204.083064px,347.640538px) rotate(-56deg); } 55% { transform: translate(194.804595px,325.515777px) rotate(-34deg); } 60% { transform: translate(181.046987px,289.456796px) rotate(-18deg); } 65% { transform: translate(181.233612px,284px) rotate(0deg); } 100% { transform: translate(182.54px,284px) rotate(0deg); } }
@keyframes a5_t { 0% { transform: translate(212.9775px,359.725247px); } 100% { transform: translate(216.0225px,-180.991869px); } }
@keyframes a6_t { 0% { transform: translate(778.650006px,603.09px) rotate(90deg); } 40% { transform: translate(441.647491px,381px) rotate(90deg); } 45% { transform: translate(441.647491px,361.6px) rotate(72deg); } 50% { transform: translate(441.647491px,342.2px) rotate(54deg); } 55% { transform: translate(441.647491px,322.8px) rotate(36deg); } 60% { transform: translate(441.647491px,303.4px) rotate(18deg); } 65% { transform: translate(441.647491px,284px) rotate(0deg); } 100% { transform: translate(441.647491px,284px) rotate(0deg); } }
    </style>
    <path d="M0,163L612,163L612,-24.6806C612,-24.6806,617.5,-106.396,457,-106.396C296.5,-106.396,0,-106.396,0,-106.396L-105,14.8589" stroke="none" fill="#53be9a" stroke-width="40" stroke-dasharray="20" transform="translate(-292.023,574.791)" style="animation: 2s linear both a0_d;"/>
    <path d="M0,163L612,163L612,-32.7652C612,-32.7652,617.5,-118,457,-118C296.5,-118,0,-118,0,-118L-105,8.4775" stroke="none" fill="#53be9a" stroke-width="40" stroke-dasharray="20" stroke-dashoffset="20" transform="translate(932.022,574.791) scale(-1,1)" style="animation: 2s linear both a1_d;"/>
    <path d="M0,163L612,163L612,-16.5961C612,-16.5961,617.5,-94.791,457,-94.791C296.5,-94.791,0,-94.791,0,-94.791L-105,21.2402" stroke="#93c55c" fill="none" stroke-width="40" stroke-dasharray="20" stroke-dashoffset="10" transform="translate(-292.023,563.187)" style="animation: 2s linear both a2_d;"/>
    <path d="M0,163L612,163L612,-32.7652C612,-32.7652,617.5,-118,457,-118C296.5,-118,0,-118,0,-118L-105,8.4775" stroke="#399807" fill="none" stroke-width="40" stroke-dasharray="20" stroke-dashoffset="20" transform="translate(932.022,574.791) scale(-1,1)" style="animation: 2s linear both a3_d;"/>
    <text fill="#000000" font-size="150" font-family="Arial" font-weight="700" letter-spacing="0" word-spacing="0" text-anchor="middle" stroke="none" transform="translate(-142.46,603.093) rotate(-90)" style="line-height: 16px; animation: 2s linear both a4_t;">zip</text>
    <g transform="translate(316.978,478.508) translate(-104,-118.783)" style="animation: 2s linear both a5_t;">
        <path d="M0,0L-64,-90L0,-150L45.9775,-121.756L86,-150L144,-90L86,0Z" fill="#758887" stroke-width="40" stroke="none" transform="translate(64,237.566)"/>
        <path fill="#4e5b5a" stroke="none" stroke-width="40" d="M52,0L0,0L0,209.783L52,209.783ZM41,15.5658L12,15.5658L12,87.5658L41,87.5658Z" fill-rule="evenodd" transform="translate(108,93.0658) translate(-26,-93.0658)"/>
    </g>
    <text fill="#000000" font-size="150" font-family="Arial" font-weight="700" letter-spacing="0" word-spacing="0" text-anchor="middle" stroke="none" transform="translate(778.65,603.09) rotate(90)" style="line-height: 16px; animation: 2s linear both a6_t;">up</text>
</svg>
